<?xml version="1.0" encoding="utf-8"?>
<!-- Generator: Adobe Illustrator 26.5.0, SVG Export Plug-In . SVG Version: 6.00 Build 0)  -->
<svg version="1.1" id="Ebene_1" xmlns="http://www.w3.org/2000/svg" xmlns:xlink="http://www.w3.org/1999/xlink" x="0px" y="0px"
	 viewBox="0 0 2378.9 1318.5" style="enable-background:new 0 0 2378.9 1318.5;" xml:space="preserve">
<style type="text/css">
	.st0{fill:none;}
	.st1{fill:#299463;}
</style>
<rect class="st0" width="2378.9" height="1318.5"/>
<g>
	<g>
		<path class="st1" d="M561.3,887.6c-26.8,0-48.5-21.7-48.5-48.5c0-26.8,21.7-48.5,48.5-48.5c26.8,0,48.5,21.7,48.5,48.5
			C609.8,865.9,588.1,887.6,561.3,887.6L561.3,887.6z"/>
		<path class="st1" d="M163.1,887.6c-26.8,0-48.5-21.7-48.5-48.5c0-26.8,21.7-48.5,48.5-48.5c26.8,0,48.5,21.7,48.5,48.5
			C211.6,865.9,189.9,887.6,163.1,887.6L163.1,887.6z"/>
	</g>
	<rect x="789" y="64.3" width="32.3" height="1189.9"/>
	<path d="M915.2,842.2c-6.1,0-9.9-4.6-9.9-9.9V377c0-5.3,3.8-9.9,9.9-9.9h185.4c57.8,0,103.3,14.4,135.3,44.1
		c47.1,42.6,63.1,123.1,40.3,182.4c-8.4,21.3-22.8,41-41,55.5c-10.6,8.4-22,14.4-33.4,20.5c32.7,51.7,82.1,156.6,82.1,156.6
		c0.8,1.5,2.3,3.8,2.3,6.1c0,5.3-4.6,9.9-9.9,9.9h-112.5c-3,0-6.8-2.3-8.4-5.3l-66.1-145.2c-23.6,1.5-41.8,0.8-66.1,0.8v139.9
		c0,5.3-4.6,9.9-9.9,9.9L915.2,842.2L915.2,842.2L915.2,842.2z M1023.1,586.8c0,0,95.7,10.6,129.2-11.4
		c12.9-8.4,20.5-28.9,20.5-44.1c-0.8-16.7-9.1-34.2-22.8-44.8c-14.4-12.2-50.2-16-68.4-16l-58.5,1.5V586.8L1023.1,586.8
		L1023.1,586.8z M1578.6,842.2c-5.3,0-9.9-4.6-9.9-9.9V725.1h-196c-5.3,0-9.9-4.6-9.9-9.9v-73c0-1.5,0.8-3,1.5-4.6l200.6-269.9
		c1.5-3.8,5.3-6.1,9.1-6.1h96.5c5.3,0,9.9,4.6,9.9,9.9v250.1h50.9c5.3,0,9.9,4.6,9.9,9.9v83.6c0,5.3-4.6,9.9-9.9,9.9h-50.9v107.2
		c0,5.3-4.6,9.9-9.9,9.9H1578.6L1578.6,842.2z M1498,621.7h70.7v-97.3L1498,621.7L1498,621.7z M1827.1,842.2c-6.1,0-9.9-4.6-9.9-9.9
		V377c0-5.3,3.8-9.9,9.9-9.9h185.4c57.8,0,103.3,14.4,135.3,44.1c47.1,42.6,63.1,123.1,40.3,182.4c-8.4,21.3-22.8,41-41,55.5
		c-10.6,8.4-22,14.4-33.4,20.5c32.7,51.7,82.1,156.6,82.1,156.6c0.8,1.5,2.3,3.8,2.3,6.1c0,5.3-4.6,9.9-9.9,9.9h-112.5
		c-3,0-6.8-2.3-8.4-5.3l-66.1-145.2c-23.6,1.5-41.8,0.8-66.1,0.8v139.9c0,5.3-4.6,9.9-9.9,9.9L1827.1,842.2L1827.1,842.2
		L1827.1,842.2z M1935,586.8c0,0,95.7,10.6,129.2-11.4c12.9-8.4,20.5-28.9,20.5-44.1c-0.8-16.7-9.1-34.2-22.8-44.8
		c-14.4-12.2-50.2-16-68.4-16L1935,472V586.8L1935,586.8L1935,586.8z"/>
	<path d="M906.4,958.5c-0.7,0-1.1-0.5-1.1-1.1v-49.8c0-0.6,0.4-1.1,1.1-1.1h20.3c6.3,0,11.3,1.6,14.8,4.8c5.2,4.7,6.9,13.5,4.4,20
		c-0.9,2.3-2.5,4.5-4.5,6.1c-1.2,0.9-2.4,1.6-3.7,2.2c3.6,5.7,9,17.1,9,17.1c0.1,0.2,0.2,0.4,0.2,0.7c0,0.6-0.5,1.1-1.1,1.1h-12.3
		c-0.3,0-0.7-0.2-0.9-0.6l-7.2-15.9c-2.6,0.2-4.6,0.1-7.2,0.1v15.3c0,0.6-0.5,1.1-1.1,1.1L906.4,958.5L906.4,958.5L906.4,958.5z
		 M918.2,930.6c0,0,10.5,1.2,14.1-1.2c1.4-0.9,2.2-3.2,2.2-4.8c-0.1-1.8-1-3.7-2.5-4.9c-1.6-1.3-5.5-1.7-7.5-1.7l-6.4,0.2V930.6
		L918.2,930.6L918.2,930.6z M955.4,958.5v-49.8c0-2.1,0.4-2.5,1.1-2.5h36.4c0.6,0,1.1,0.4,1.1,1v9.4c0,0.6-0.5,1.1-1.1,1.1h-24.6
		v8.6h15.5c0.6,0,1.1,0.5,1.1,1.1v9.3c0,0.6-0.5,1.1-1.1,1.1h-15.5v8.9h24.5c0.6,0,1.1,0.5,1.1,1.1v9.3c0,0.6-0.5,1.1-1.1,1.1h-36.3
		C955.8,958.2,955.4,957.7,955.4,958.5L955.4,958.5L955.4,958.5z M1003.3,958.5c-0.3,0-0.7-0.2-0.8-0.5c-0.2-0.2-0.2-0.7-0.2-1
		l19.4-49.8c0.2-0.4,0.6-0.7,1-0.7h11.1c0.4,0,0.8,0.2,1,0.7l19,49.8c0.1,0.3,0.1,0.7-0.2,1c-0.2,0.3-0.5,0.5-0.8,0.5h-11.6
		c-0.4,0-0.8-0.2-1-0.7l-3.1-7.6l-18.7,0.1l-3.1,7.6c-0.2,0.4-0.6,0.7-1,0.7H1003.3L1003.3,958.5L1003.3,958.5z M1022,939.8h12
		l-6-17.6L1022,939.8L1022,939.8z M1061.7,958.5c-0.7,0-1.1-0.5-1.1-1.1v-49.8c0-0.6,0.4-1.1,1.1-1.1h18.9c5,0,9.6,1.1,13.5,3.3
		c4,2.2,7.1,5.2,9.3,9.2c2.2,3.9,3.3,8.4,3.3,13.4c0,5.1-1.2,9.6-3.4,13.5c-2.2,4-5.4,7.1-9.5,9.2c-4,2.2-8.6,3.3-13.7,3.3H1061.7
		L1061.7,958.5L1061.7,958.5z M1073.5,946.9h7.3c2.4,0,4.7-0.6,6.6-1.7c1.9-1.2,3.5-2.9,4.6-5.1c1.1-2.2,1.7-4.7,1.7-7.5
		c0-2.7-0.6-5.3-1.7-7.5c-1.2-2.2-2.7-3.9-4.7-5.2c-2-1.2-4.3-1.8-6.8-1.8h-6.8V946.9L1073.5,946.9z M1127.1,958.5
		c-0.6,0-1-0.5-1-1.1v-19.8l-17.6-29.5c-0.2-0.3-0.2-0.7,0.1-1.1c0.2-0.3,0.5-0.5,0.9-0.5h10.8c0.4,0,0.7,0.2,0.9,0.6l11.3,18.5
		l11.1-18.5c0.2-0.3,0.5-0.6,0.9-0.6h10.9c0.3,0,0.7,0.2,0.9,0.5c0.2,0.3,0.2,0.7,0,1.1l-17.3,29.2v20.1c0,0.6-0.5,1.1-1.1,1.1
		H1127.1L1127.1,958.5L1127.1,958.5z M1188.2,958.5c-0.6,0-1.1-0.5-1.1-1.1v-49.8c0-0.6,0.5-1.1,1.1-1.1h34.3c0.3,0,0.6,0.1,0.7,0.3
		c0.2,0.2,0.3,0.4,0.3,0.7l-0.1,9.3c0,0.6-0.5,1.1-1.1,1.1H1200v10.1h14.1c0.6,0,1.1,0.5,1.1,1.1v9.4c0,0.6-0.5,1.1-1.1,1.1H1200
		v17.8c0,0.6-0.4,1.1-1,1.1L1188.2,958.5L1188.2,958.5L1188.2,958.5z M1258.7,958.5c-5,0-9.6-1.2-13.5-3.5c-4.1-2.3-7.3-5.7-9.7-9.6
		c-2.3-4.1-3.5-8.7-3.5-13.7c0-4.9,1.2-9.5,3.5-13.6c2.4-4.1,5.6-7.3,9.6-9.6c4.1-2.3,8.6-3.5,13.6-3.5c4.9,0,9.5,1.2,13.5,3.5
		c4.1,2.3,7.3,5.6,9.6,9.6c2.4,4.1,3.6,8.6,3.6,13.6c0,5-1.2,9.6-3.6,13.6c-2.3,4.1-5.6,7.3-9.6,9.7
		C1268.1,957.4,1263.6,958.5,1258.7,958.5L1258.7,958.5z M1258.8,946.6c2.4,0,4.7-0.7,6.6-1.9c2.1-1.3,3.7-3.1,4.9-5.4
		c1.2-2.2,1.8-4.8,1.8-7.6c0-2.7-0.6-5.2-1.8-7.5c-1.2-2.2-2.8-4-4.9-5.3c-2-1.2-4.2-1.9-6.6-1.9c-2.5,0-4.7,0.7-6.8,1.9
		c-2.2,1.3-3.8,3.1-5.1,5.3c-1.2,2.3-1.8,4.8-1.8,7.5c0,2.7,0.6,5.3,1.8,7.6c1.3,2.2,3,4.1,5.1,5.3
		C1254.1,945.9,1256.3,946.6,1258.8,946.6L1258.8,946.6z M1294.8,958.5c-0.7,0-1.1-0.5-1.1-1.1v-49.8c0-0.6,0.4-1.1,1.1-1.1h20.3
		c6.3,0,11.3,1.6,14.8,4.8c5.2,4.7,6.9,13.5,4.4,20c-0.9,2.3-2.5,4.5-4.5,6.1c-1.2,0.9-2.4,1.6-3.7,2.2c3.6,5.7,9,17.1,9,17.1
		c0.1,0.2,0.2,0.4,0.2,0.7c0,0.6-0.5,1.1-1.1,1.1H1322c-0.3,0-0.7-0.2-0.9-0.6l-7.2-15.9c-2.6,0.2-4.6,0.1-7.2,0.1v15.3
		c0,0.6-0.5,1.1-1.1,1.1L1294.8,958.5L1294.8,958.5L1294.8,958.5z M1306.6,930.6c0,0,10.5,1.2,14.1-1.2c1.4-0.9,2.2-3.2,2.2-4.8
		c-0.1-1.8-1-3.7-2.5-4.9c-1.6-1.3-5.5-1.7-7.5-1.7l-6.4,0.2V930.6L1306.6,930.6L1306.6,930.6z M1388.4,959c-4,0-8-0.7-11.8-2.2
		c-3.8-1.4-7.2-3.5-10.1-6c-0.3-0.3-0.4-0.8-0.2-1.2l2.9-9.9c0.2-0.3,0.4-0.6,0.7-0.6c0.3-0.1,0.7,0,0.9,0.2
		c4.4,4.2,9.4,7.9,15.6,8.2c1.7,0.1,3.5,0.2,5.1-0.3c4.9-1.6,2.8-6.6-0.8-8.1c-1.2-0.5-3-1.1-5.2-1.7c-3.3-0.9-6.1-1.9-8.1-2.9
		c-2.2-1-4.2-2.6-5.8-4.7c-1.6-2.2-2.4-5-2.4-8.4c0-3.2,0.8-6.1,2.5-8.5c1.7-2.4,4-4.3,6.9-5.6c2.9-1.2,6.3-1.9,10.1-1.9
		c3.4,0,6.7,0.5,10.1,1.6c3.2,1,6.2,2.4,8.7,4.1c0.4,0.3,0.6,0.8,0.3,1.3l-2.7,9.3c-0.1,0.3-0.3,0.5-0.7,0.6
		c-0.2,0.1-0.6,0.1-0.8-0.1c-3.7-2.3-7.5-5.2-11.9-5.7c-2.9-0.4-7.3-0.2-8.3,3.2c-1.2,4.5,5.3,5.7,8.3,6.6c3.3,1,6.1,2,8.2,3
		c2.2,1.1,4.2,2.7,5.8,4.8c1.7,2.2,2.5,5.1,2.5,8.6c0,3.4-0.9,6.3-2.7,8.8c-1.7,2.5-4.1,4.3-7.1,5.7
		C1395.5,958.4,1392.2,959,1388.4,959L1388.4,959L1388.4,959z M1417.6,958.5c-0.6,0-1.1-0.5-1.1-1.1v-49.8c0-0.6,0.5-1.1,1.1-1.1h12
		c0.4,0,0.8,0.2,1,0.6l12.5,30.8l12.4-30.8c0.2-0.3,0.6-0.6,1-0.6h12c0.6,0,1.1,0.5,1.1,1.1v49.8c0,0.6-0.5,1.1-1.1,1.1h-9.7
		c-0.6,0-1.1-0.5-1.1-1.1v-26.8l-10.1,25.8c-0.2,0.3-0.6,0.6-0.9,0.6h-7c-0.4,0-0.8-0.2-1-0.6l-10.2-25.8v26.8
		c0,0.6-0.5,1.1-1.1,1.1H1417.6L1417.6,958.5L1417.6,958.5z M1478.8,958.5c-0.3,0-0.7-0.2-0.8-0.5c-0.2-0.2-0.2-0.7-0.2-1l19.4-49.8
		c0.2-0.4,0.6-0.7,1-0.7h11.1c0.4,0,0.8,0.2,1,0.7l19,49.8c0.1,0.3,0.1,0.7-0.2,1c-0.2,0.3-0.5,0.5-0.8,0.5h-11.6
		c-0.4,0-0.8-0.2-1-0.7l-3.1-7.6l-18.7,0.1l-3.1,7.6c-0.2,0.4-0.6,0.7-1,0.7H1478.8L1478.8,958.5L1478.8,958.5z M1497.5,939.8h12
		l-6-17.6L1497.5,939.8L1497.5,939.8z M1537.2,958.5c-0.7,0-1.1-0.5-1.1-1.1v-49.8c0-0.6,0.4-1.1,1.1-1.1h20.3
		c6.3,0,11.3,1.6,14.8,4.8c5.2,4.7,6.9,13.5,4.4,20c-0.9,2.3-2.5,4.5-4.5,6.1c-1.2,0.9-2.4,1.6-3.7,2.2c3.6,5.7,9,17.1,9,17.1
		c0.1,0.2,0.2,0.4,0.2,0.7c0,0.6-0.5,1.1-1.1,1.1h-12.3c-0.3,0-0.7-0.2-0.9-0.6l-7.2-15.9c-2.6,0.2-4.6,0.1-7.2,0.1v15.3
		c0,0.6-0.5,1.1-1.1,1.1L1537.2,958.5L1537.2,958.5L1537.2,958.5z M1549,930.6c0,0,10.5,1.2,14.1-1.2c1.4-0.9,2.2-3.2,2.2-4.8
		c-0.1-1.8-1-3.7-2.5-4.9c-1.6-1.3-5.5-1.7-7.5-1.7l-6.4,0.2V930.6L1549,930.6L1549,930.6z M1597.1,958.5c-0.6,0-1-0.5-1-1.1v-39.2
		h-11.4c-0.6,0-1.1-0.4-1.1-1v-9.6c0-0.6,0.5-1.1,1.1-1.1h35.7c0.7,0,1.1,0.5,1.1,1.1v9.6c0,0.6-0.4,1-1.1,1H1609v39.2
		c0,0.6-0.5,1.1-1.1,1.1H1597.1L1597.1,958.5L1597.1,958.5z M1678.4,958.5c-4.9,0-9.4-1.2-13.4-3.5c-4-2.4-7.1-5.7-9.4-9.7
		s-3.4-8.6-3.4-13.7c0-4.9,1.2-9.5,3.5-13.6c2.3-4,5.6-7.2,9.6-9.6c4.1-2.3,8.6-3.5,13.5-3.5c3.7,0,7.2,0.8,10.7,2.3
		c3.5,1.6,6.5,3.7,9,6.3c0.3,0.4,0.3,1,0,1.4l-7.9,6.5c-0.2,0.2-0.5,0.4-0.8,0.4s-0.7-0.2-0.8-0.4c-4.2-5.2-11.1-6.2-16.8-2.7
		c-5,3.1-6.8,8.7-6.6,14.4c0.2,5.7,4.4,10.6,9.9,12.3c5,1.5,9.9,0.3,13.5-3.5c0.2-0.2,0.5-0.3,0.8-0.2c0.3,0,0.6,0.1,0.7,0.3
		l8.1,5.7c0.3,0.4,0.3,1,0,1.4c-2.7,2.8-5.8,5.2-9.3,6.8C1685.6,957.7,1682,958.5,1678.4,958.5L1678.4,958.5L1678.4,958.5z
		 M1708.2,958.5c-0.6,0-1.1-0.5-1.1-1.1v-49.8c0-0.6,0.5-1.1,1.1-1.1h10.8c0.6,0,1.1,0.5,1.1,1.1v49.8c0,0.6-0.5,1.1-1.1,1.1H1708.2
		L1708.2,958.5z M1741.8,958.5c-0.6,0-1-0.5-1-1.1v-39.2h-11.4c-0.6,0-1.1-0.4-1.1-1v-9.6c0-0.6,0.5-1.1,1.1-1.1h35.7
		c0.7,0,1.1,0.5,1.1,1.1v9.6c0,0.6-0.4,1-1.1,1h-11.4v39.2c0,0.6-0.5,1.1-1.1,1.1H1741.8L1741.8,958.5L1741.8,958.5z M1793.2,958.5
		c-0.6,0-1-0.5-1-1.1v-19.8l-17.6-29.5c-0.2-0.3-0.2-0.7,0.1-1.1c0.2-0.3,0.5-0.5,0.9-0.5h10.8c0.4,0,0.7,0.2,0.9,0.6l11.3,18.5
		l11.1-18.5c0.2-0.3,0.5-0.6,0.9-0.6h10.9c0.3,0,0.7,0.2,0.9,0.5c0.2,0.3,0.2,0.7,0,1.1l-17.3,29.2v20.1c0,0.6-0.5,1.1-1.1,1.1
		H1793.2L1793.2,958.5z M1854.3,958.5c-0.7,0-1.1-0.5-1.1-1.1v-49.8c0-0.6,0.4-1.1,1.1-1.1h20.3c6.3,0,11.3,1.6,14.8,4.8
		c5.2,4.7,6.9,13.5,4.4,20c-0.9,2.3-2.5,4.5-4.5,6.1c-1.2,0.9-2.4,1.6-3.7,2.2c3.6,5.7,9,17.1,9,17.1c0.1,0.2,0.2,0.4,0.2,0.7
		c0,0.6-0.5,1.1-1.1,1.1h-12.3c-0.3,0-0.7-0.2-0.9-0.6l-7.2-15.9c-2.6,0.2-4.6,0.1-7.2,0.1v15.3c0,0.6-0.5,1.1-1.1,1.1L1854.3,958.5
		L1854.3,958.5L1854.3,958.5z M1866.1,930.6c0,0,10.5,1.2,14.1-1.2c1.4-0.9,2.2-3.2,2.2-4.8c-0.1-1.8-1-3.7-2.5-4.9
		c-1.6-1.3-5.5-1.7-7.5-1.7l-6.4,0.2L1866.1,930.6L1866.1,930.6L1866.1,930.6z M1930,958.5c-5,0-9.6-1.2-13.5-3.5
		c-4.1-2.3-7.3-5.7-9.7-9.6c-2.3-4.1-3.5-8.7-3.5-13.7c0-4.9,1.2-9.5,3.5-13.6c2.4-4.1,5.6-7.3,9.6-9.6c4.1-2.3,8.6-3.5,13.6-3.5
		c4.9,0,9.5,1.2,13.5,3.5c4.1,2.3,7.3,5.6,9.6,9.6c2.4,4.1,3.6,8.6,3.6,13.6c0,5-1.2,9.6-3.6,13.6c-2.3,4.1-5.6,7.3-9.6,9.7
		C1939.5,957.4,1934.9,958.5,1930,958.5L1930,958.5L1930,958.5z M1930.2,946.6c2.4,0,4.7-0.7,6.6-1.9c2.1-1.3,3.7-3.1,4.9-5.4
		c1.2-2.2,1.8-4.8,1.8-7.6c0-2.7-0.6-5.2-1.8-7.5c-1.2-2.2-2.8-4-4.9-5.3c-2-1.2-4.2-1.9-6.6-1.9c-2.5,0-4.7,0.7-6.8,1.9
		c-2.2,1.3-3.8,3.1-5.1,5.3c-1.2,2.3-1.8,4.8-1.8,7.5c0,2.7,0.6,5.3,1.8,7.6c1.3,2.2,3,4.1,5.1,5.3
		C1925.4,945.9,1927.7,946.6,1930.2,946.6L1930.2,946.6z M1966.2,958.5c-0.6,0-1.1-0.5-1.1-1.1v-49.8c0-0.6,0.5-1.1,1.1-1.1h19.9
		c5.5,0,9.1,1.2,12.4,3.6c4.5,3.2,6.3,9.4,4.2,14.6c-1.1,2.7-2.9,4.1-5.4,5.4c3.6,0.5,5.8,2.8,7.1,4.5c1.9,2.5,2.9,5.5,2.9,9
		c0,4.6-1.8,8.3-5.3,11c-3.4,2.6-8.1,3.9-13.8,3.9H1966.2L1966.2,958.5L1966.2,958.5z M1977.3,925.6h8.1c1.7,0,3-0.3,3.9-1.1
		c0.8-0.7,1.2-1.7,1.2-3.1c0-1.2-0.4-2.2-1.2-2.9c-0.8-0.7-2.1-1.1-3.6-1.1h-8.5V925.6L1977.3,925.6z M1977.3,948.3h9.7
		c2.5,0,4.4-0.5,5.8-1.5c1.2-0.9,1.9-2.2,1.9-3.9c0-1.6-0.7-2.7-1.9-3.7c-1.3-0.9-3.2-1.4-5.5-1.4h-10.1L1977.3,948.3L1977.3,948.3
		L1977.3,948.3z M2042.4,958.5c-5,0-9.6-1.2-13.5-3.5c-4.1-2.3-7.3-5.7-9.7-9.6c-2.3-4.1-3.5-8.7-3.5-13.7c0-4.9,1.2-9.5,3.5-13.6
		c2.4-4.1,5.6-7.3,9.6-9.6c4.1-2.3,8.6-3.5,13.6-3.5c4.9,0,9.5,1.2,13.5,3.5c4.1,2.3,7.3,5.6,9.6,9.6c2.4,4.1,3.6,8.6,3.6,13.6
		c0,5-1.2,9.6-3.6,13.6c-2.3,4.1-5.6,7.3-9.6,9.7C2051.9,957.4,2047.3,958.5,2042.4,958.5L2042.4,958.5z M2042.5,946.6
		c2.4,0,4.7-0.7,6.6-1.9c2.1-1.3,3.7-3.1,4.9-5.4c1.2-2.2,1.8-4.8,1.8-7.6c0-2.7-0.6-5.2-1.8-7.5c-1.2-2.2-2.8-4-4.9-5.3
		c-2-1.2-4.2-1.9-6.6-1.9c-2.5,0-4.7,0.7-6.8,1.9c-2.2,1.3-3.8,3.1-5.1,5.3c-1.2,2.3-1.8,4.8-1.8,7.5c0,2.7,0.6,5.3,1.8,7.6
		c1.3,2.2,3,4.1,5.1,5.3C2037.8,945.9,2040.1,946.6,2042.5,946.6L2042.5,946.6z M2087.6,958.5c-0.6,0-1-0.5-1-1.1v-39.2h-11.4
		c-0.6,0-1.1-0.4-1.1-1v-9.6c0-0.6,0.5-1.1,1.1-1.1h35.7c0.7,0,1.1,0.5,1.1,1.1v9.6c0,0.6-0.4,1-1.1,1h-11.4v39.2
		c0,0.6-0.5,1.1-1.1,1.1H2087.6L2087.6,958.5z M2139.1,959c-4,0-8-0.7-11.8-2.2c-3.8-1.4-7.2-3.5-10.1-6c-0.3-0.3-0.4-0.8-0.2-1.2
		l2.9-9.9c0.2-0.3,0.4-0.6,0.7-0.6c0.3-0.1,0.7,0,0.9,0.2c4.4,4.2,9.4,7.9,15.6,8.2c1.7,0.1,3.5,0.2,5.1-0.3
		c4.9-1.6,2.8-6.6-0.8-8.1c-1.2-0.5-3-1.1-5.2-1.7c-3.3-0.9-6.1-1.9-8.1-2.9c-2.2-1-4.2-2.6-5.8-4.7c-1.6-2.2-2.4-5-2.4-8.4
		c0-3.2,0.8-6.1,2.5-8.5s4-4.3,6.9-5.6s6.3-1.9,10.1-1.9c3.4,0,6.7,0.5,10.1,1.6c3.2,1,6.2,2.4,8.7,4.1c0.4,0.3,0.6,0.8,0.3,1.3
		l-2.7,9.3c-0.1,0.3-0.3,0.5-0.7,0.6c-0.2,0.1-0.6,0.1-0.8-0.1c-3.7-2.3-7.5-5.2-11.9-5.7c-2.9-0.4-7.3-0.2-8.3,3.2
		c-1.2,4.5,5.3,5.7,8.3,6.6c3.3,1,6.1,2,8.2,3c2.2,1.1,4.2,2.7,5.8,4.8c1.7,2.2,2.5,5.1,2.5,8.6c0,3.4-0.9,6.3-2.7,8.8
		c-1.7,2.5-4.1,4.3-7.1,5.7C2146.2,958.4,2142.9,959,2139.1,959L2139.1,959z M2178.1,943.2c-0.6,0-1.1-0.5-1.1-1.1
		c0-3.2,0.3-6.2,1.6-9.1c1.1-2.7,3.2-4.5,5.2-6.2c2-1.7,4-4.6,2.7-7.3c-1-2.3-4.2-2.9-6.5-2c-2.1,0.9-2.5,3.2-2.6,5.2
		c0,0.6-0.5,1-1.1,1l-8.1-0.1c-0.2,0-0.6-0.1-0.7-0.2c-0.2-0.2-0.3-0.5-0.3-0.8c0.1-5.2,1.6-9.3,4.4-12.2c4.3-4.5,11.1-5.2,17-3.7
		c2.1,0.5,3.9,1.5,5.3,2.8c5.5,4.8,5.7,13.6,1.3,19.2c-3.2,4.2-8.2,7.6-8.2,13.6c0,0.6-0.5,1.1-1.1,1.1L2178.1,943.2L2178.1,943.2
		L2178.1,943.2z M2181.9,958.5c-1.6,0-2.9-0.6-3.9-1.7c-1-1.2-1.5-2.5-1.5-4.2s0.5-3,1.5-4.1c1.1-1.1,2.3-1.7,3.9-1.7
		s2.9,0.6,3.9,1.7c1,1.1,1.5,2.4,1.5,4.1s-0.5,3.1-1.5,4.2C2184.8,958,2183.4,958.5,2181.9,958.5L2181.9,958.5z"/>
	<g>
		<g>
			<path class="st1" d="M496.1,593.2c-22,0-39.8,17.9-39.8,39.9S474,673,496.1,673c22,0,39.8-17.9,39.8-39.9S518,593.2,496.1,593.2
				L496.1,593.2z M233.1,593.2c-22,0-39.8,17.9-39.8,39.9S211,673,233.1,673c22,0,39.8-17.9,39.8-39.9S255.1,593.2,233.1,593.2
				L233.1,593.2z M122.1,543c-7.8-7.8-11.7-18-11.7-28.2c0-10.2,3.9-20.4,11.7-28.2c7.8-7.8,18-11.6,28.2-11.6
				c10.2,0,20.4,3.9,28.2,11.6l-9.3,6.9c53.9-41.9,121.7-67,195.4-67c73.7,0,141.4,25.1,195.4,67l-9.3-6.8
				c7.8-7.8,18-11.7,28.2-11.7c10.2,0,20.4,3.9,28.2,11.7c7.7,7.8,11.6,18,11.6,28.2c0,10.2-3.8,20.4-11.6,28.2l9.3,6.8
				c134.7,134.8-94.6,195.4-94.6,195.4s-50.3,12.7-158.6,14.5c-87.5,1.5-155.7-14.5-155.7-14.5c-6.6,0-238.7-51.3-94.6-195.4
				L122.1,543L122.1,543z"/>
		</g>
		<path class="st1" d="M362.2,823.5c44.2-1.4,93.5-10.9,142.9-51.3c3.6-2.9,0.8-8.6-3.7-7.7c-33.6,6.7-90.6,13.7-139.3,13.2
			c-48.7,0.5-105.7-6.5-139.3-13.2c-4.5-0.9-7.2,4.8-3.7,7.7C268.7,812.5,318.1,822,362.2,823.5z"/>
	</g>
</g>
</svg>
